# xmcd
#
# Track frame offsets: 
#        150
#        28447
#        53177
#
# Disc length: 1083 seconds
#
# Revision: 8
# Processed by: cddbd v1.5.1PL0 Copyright (c) Steve Scherf et al.
# Submitted via: ExactAudioCopy v0.95a5
#
DISCID=25043903
DTITLE=Wanderin' Destiny - Wanderin' Destiny
DYEAR=1997
DGENRE=JPop
TTITLE0=Wanderin' Destiny
TTITLE1=Wanderin' Destiny -"BOOM THE BASS" MIX-
TTITLE2=Wanderin' Destiny -INSTRUMENTAL-
EXTD=YEAR: 2000
EXTT0=
EXTT1=
EXTT2=
PLAYORDER=
